<svg width="24" height="22" viewBox="0 0 24 22" fill="none" xmlns="http://www.w3.org/2000/svg">
<g clip-path="url(#clip0_163_4064)">
<path d="M4 10.9279C4 10.4249 4.40772 10.0172 4.91066 10.0172H16.17L11.3563 5.63352C10.9403 5.25469 10.9414 4.59979 11.3587 4.22244C11.7225 3.89349 12.2766 3.89446 12.6392 4.22469L19.1881 10.1885C19.6237 10.5852 19.6237 11.2705 19.1881 11.6672L12.6395 17.6307C12.2771 17.9608 11.7229 17.9608 11.3605 17.6307C10.947 17.2542 10.9467 16.6037 11.3598 16.2268L16.17 11.8385H4.91066C4.40771 11.8385 4 11.4308 4 10.9279Z" fill="white" fill-opacity="0.87"/>
</g>
<defs>
<clipPath id="clip0_163_4064">
<rect width="24" height="21.8558" fill="white" transform="matrix(-1 0 0 1 24 0)"/>
</clipPath>
</defs>
</svg>
