<svg width="24" height="24" viewBox="0 0 24 24" fill="none" xmlns="http://www.w3.org/2000/svg">
<path d="M21.0643 4.20241L21.0321 4.18235L16.9731 2.18262L12.592 8.02404L14.6076 10.7117C14.5473 11.7253 14.1175 12.6816 13.3995 13.3996C12.6815 14.1176 11.7252 14.5474 10.7116 14.6077L8.024 12.5921L2.18262 16.973L4.16571 20.9982L4.1824 21.0321L4.20251 21.0642C4.30834 21.2347 4.45605 21.3753 4.63158 21.4726C4.80711 21.5699 5.00462 21.6206 5.20531 21.62H6.25268C8.27075 21.62 10.2691 21.2225 12.1335 20.4502C13.998 19.6779 15.692 18.546 17.119 17.119C18.546 15.692 19.678 13.9979 20.4503 12.1335C21.2225 10.269 21.62 8.2707 21.62 6.25263V5.20521C21.6206 5.00453 21.5699 4.80702 21.4726 4.63149C21.3754 4.45596 21.2348 4.30824 21.0643 4.20241ZM20.12 6.25263C20.12 13.8991 13.8991 20.12 6.25268 20.12H5.40518L4.07834 17.4264L8.02428 14.467L10.2212 16.1146H10.4712C11.9675 16.1129 13.402 15.5178 14.46 14.4597C15.5181 13.4017 16.1132 11.9671 16.1149 10.4708V10.2208L14.4673 8.02399L17.4264 4.07829L20.12 5.40537V6.25263Z" fill="#7F7F7F"/>
</svg>
