<svg width="24" height="24" viewBox="0 0 24 24" fill="none" xmlns="http://www.w3.org/2000/svg">
<g clip-path="url(#clip0_163_4261)">
<path d="M18.8611 20.2758C19.1284 20.0541 19.3846 19.8198 19.6296 19.5728M17.9096 11.9998C17.9082 10.5208 17.3518 9.09624 16.3504 8.00787C15.349 6.9195 13.9756 6.24664 12.5019 6.12243C11.0281 5.99822 9.56143 6.4317 8.39199 7.33711C7.22256 8.24252 6.43556 9.5539 6.18672 11.0118C5.93788 12.4697 6.24531 13.9678 7.0482 15.2099C7.85109 16.452 9.09094 17.3474 10.5224 17.7191C11.9539 18.0908 13.4728 17.9116 14.7785 17.217C16.0843 16.5225 17.0817 15.3631 17.5736 13.9683C17.7966 13.336 17.9104 12.6703 17.9101 11.9998H17.9096Z" stroke="#7F7F7F" stroke-width="2" stroke-linecap="round" stroke-linejoin="round"/>
<path d="M22.75 12C22.7529 10.3331 22.368 8.68829 21.6259 7.19566C20.8838 5.70302 19.8048 4.40342 18.474 3.39953C17.1433 2.39564 15.5973 1.71497 13.9583 1.41132C12.3192 1.10766 10.632 1.18933 9.02998 1.64987C7.42793 2.11041 5.95492 2.93721 4.72736 4.06493C3.49979 5.19266 2.55131 6.5904 1.95684 8.14774C1.36237 9.70507 1.13821 11.3793 1.30207 13.0382C1.46593 14.697 2.01332 16.2951 2.90099 17.706L2.23399 21.766L6.29399 21.099C7.75573 22.0199 9.41827 22.574 11.1402 22.7144C12.8621 22.8547 14.5924 22.577 16.184 21.905" stroke="#7F7F7F" stroke-width="2" stroke-linecap="round" stroke-linejoin="round"/>
<path d="M17.5727 13.968C16.8507 15.729 18.0262 16.6765 19.0377 16.9065C20.2712 17.1865 22.7502 15.897 22.7502 12" stroke="#7F7F7F" stroke-width="2" stroke-linecap="round" stroke-linejoin="round"/>
</g>
<defs>
<clipPath id="clip0_163_4261">
<rect width="24" height="24" fill="white"/>
</clipPath>
</defs>
</svg>
