<svg width="24" height="24" viewBox="0 0 24 24" fill="none" xmlns="http://www.w3.org/2000/svg">
<path d="M2.93575 4.20241L2.96785 4.18235L7.0269 2.18262L11.408 8.02404L9.39236 10.7117C9.45267 11.7253 9.88251 12.6816 10.6005 13.3996C11.3185 14.1176 12.2748 14.5474 13.2884 14.6077L15.976 12.5921L21.8174 16.973L19.8343 20.9982L19.8176 21.0321L19.7975 21.0642C19.6917 21.2347 19.544 21.3753 19.3684 21.4726C19.1929 21.5699 18.9954 21.6206 18.7947 21.62H17.7473C15.7292 21.62 13.7309 21.2225 11.8665 20.4502C10.002 19.6779 8.30795 18.546 6.88096 17.119C5.45397 15.692 4.32203 13.9979 3.54975 12.1335C2.77747 10.269 2.37999 8.2707 2.37999 6.25263V5.20521C2.37935 5.00453 2.43009 4.80702 2.52736 4.63149C2.62465 4.45596 2.76523 4.30824 2.93575 4.20241ZM3.88 6.25263C3.88 13.8991 10.1009 20.12 17.7473 20.12H18.5948L19.9217 17.4264L15.9757 14.467L13.7788 16.1146H13.5288C12.0325 16.1129 10.598 15.5178 9.53996 14.4597C8.48191 13.4017 7.88677 11.9671 7.88509 10.4708V10.2208L9.5327 8.02399L6.57358 4.07829L3.88 5.40537V6.25263Z" fill="white" fill-opacity="0.85"/>
</svg>
