<svg width="24" height="24" viewBox="0 0 24 24" fill="none" xmlns="http://www.w3.org/2000/svg">
<path d="M21.5561 9.19752C21.4422 8.77416 21.219 8.38814 20.909 8.07813C20.599 7.76811 20.213 7.54496 19.7896 7.43102C18.6326 6.98402 7.42362 6.76502 4.17162 7.44352C3.7482 7.55751 3.36215 7.78073 3.05212 8.09084C2.7421 8.40095 2.51899 8.78706 2.40512 9.21052C1.88262 11.502 1.84312 16.456 2.41812 18.799C2.53206 19.2224 2.75521 19.6084 3.06523 19.9184C3.37525 20.2284 3.76126 20.4516 4.18462 20.5655C6.47612 21.093 17.3701 21.167 19.8026 20.5655C20.226 20.4516 20.612 20.2284 20.922 19.9184C21.232 19.6084 21.4552 19.2224 21.5691 18.799C22.1261 16.3025 22.1656 11.6555 21.5561 9.19752V9.19752Z" stroke="white" stroke-linecap="round" stroke-linejoin="round"/>
<path d="M15.2831 13.9979L10.0596 11.0024V16.9934L15.2831 13.9979Z" stroke="white" stroke-linecap="round" stroke-linejoin="round"/>
</svg>
